<svg width="128" height="163" viewBox="0 0 128 163" fill="none" xmlns="http://www.w3.org/2000/svg">
<path d="M126.291 40.8545C127.382 41.9455 128 43.4182 128 44.9636V157.091C128 160.309 125.4 162.909 122.182 162.909H5.81818C2.6 162.909 0 160.309 0 157.091V5.81818C0 2.6 2.6 0 5.81818 0H83.0364C84.5818 0 86.0727 0.618182 87.1636 1.70909L126.291 40.8545V40.8545ZM114.582 47.6364L80.3636 13.4182V47.6364H114.582ZM86.04 104.229C83.28 104.138 80.3455 104.351 77.0127 104.767C72.5945 102.042 69.62 98.2982 67.5073 92.7982L67.7018 92.0018L67.9273 91.06C68.7091 87.7636 69.1291 85.3582 69.2546 82.9327C69.3491 81.1018 69.2473 79.4127 68.9218 77.8473C68.3218 74.4673 65.9309 72.4909 62.9182 72.3691C60.1091 72.2545 57.5273 73.8236 56.8673 76.2545C55.7927 80.1854 56.4218 85.3582 58.7 94.18C55.7982 101.098 51.9636 109.209 49.3909 113.733C45.9564 115.504 43.2818 117.115 41.0345 118.9C38.0709 121.258 36.22 123.682 35.7109 126.227C35.4636 127.407 35.8364 128.949 36.6855 130.213C37.6491 131.645 39.1 132.576 40.84 132.711C45.2309 133.051 50.6273 128.524 56.5855 118.3C57.1836 118.1 57.8164 117.889 58.5891 117.627L60.7527 116.896C62.1218 116.435 63.1146 116.104 64.0964 115.785C68.3509 114.4 71.5691 113.525 74.4964 113.027C79.5836 115.751 85.4636 117.536 89.4236 117.536C92.6927 117.536 94.9018 115.842 95.7 113.175C96.4 110.833 95.8455 108.116 94.34 106.615C92.7836 105.085 89.9218 104.355 86.04 104.229V104.229ZM40.9509 127.578V127.513L40.9745 127.451C41.2406 126.763 41.5821 126.107 41.9927 125.495C42.7709 124.298 43.8418 123.04 45.1691 121.7C45.8818 120.982 46.6236 120.282 47.4945 119.496C47.6891 119.322 48.9327 118.215 49.1655 117.996L51.1964 116.105L49.72 118.456C47.48 122.027 45.4545 124.598 43.72 126.275C43.0818 126.893 42.52 127.347 42.0655 127.64C41.9154 127.74 41.7566 127.827 41.5909 127.898C41.5164 127.929 41.4509 127.947 41.3855 127.953C41.3164 127.962 41.2462 127.952 41.1818 127.925C41.1134 127.897 41.055 127.849 41.0139 127.787C40.9728 127.725 40.9509 127.652 40.9509 127.578V127.578ZM63.8491 87.8909L63.4382 88.6182L63.1836 87.8218C62.62 86.0345 62.2055 83.3418 62.0909 80.9127C61.96 78.1491 62.18 76.4909 63.0527 76.4909C64.2782 76.4909 64.84 78.4545 64.8836 81.4091C64.9236 84.0055 64.5145 86.7073 63.8473 87.8909H63.8491ZM62.7927 98.52L63.0709 97.7836L63.4509 98.4745C65.5764 102.336 68.3346 105.558 71.3673 107.804L72.0218 108.287L71.2236 108.451C68.2545 109.065 65.4891 109.989 61.7073 111.515C62.1018 111.355 57.7764 113.125 56.6818 113.545L55.7273 113.911L56.2364 113.024C58.4818 109.115 60.5564 104.42 62.7909 98.52H62.7927ZM91.4509 112.385C90.0218 112.949 86.9455 112.445 81.5291 110.133L80.1545 109.547L81.6455 109.438C85.8818 109.124 88.8818 109.356 90.6309 109.996C91.3764 110.269 91.8727 110.613 92.0927 111.005C92.2085 111.191 92.2474 111.415 92.2013 111.629C92.1551 111.843 92.0275 112.031 91.8455 112.153C91.7298 112.255 91.596 112.334 91.4509 112.385V112.385Z" fill="white"/>
</svg>
