<svg width="129" height="34" viewBox="0 0 129 34" fill="none" xmlns="http://www.w3.org/2000/svg">
<g clip-path="url(#clip0_234_4)">
<path fill-rule="evenodd" clip-rule="evenodd" d="M112.16 -0.000976562C102.985 -0.000976562 95.5535 7.38537 95.5535 16.5048C95.5535 23.8087 100.307 29.9777 106.908 32.1647C107.738 32.3091 108.05 31.814 108.05 31.3807C108.05 30.9887 108.029 29.6889 108.029 28.3065C103.857 29.0699 102.777 27.2955 102.445 26.3671C102.258 25.8925 101.449 24.4276 100.743 24.0356C100.162 23.7261 99.3314 22.9627 100.722 22.9421C102.03 22.9215 102.964 24.1388 103.275 24.6339C104.77 27.1304 107.157 26.429 108.112 25.9957C108.257 24.9228 108.693 24.2007 109.171 23.788C105.476 23.3754 101.615 21.9518 101.615 15.6383C101.615 13.8433 102.258 12.3577 103.317 11.2023C103.151 10.7897 102.57 9.09785 103.483 6.8283C103.483 6.8283 104.874 6.39503 108.05 8.52015C109.378 8.14877 110.79 7.96308 112.201 7.96308C113.613 7.96308 115.025 8.14877 116.353 8.52015C119.529 6.37439 120.92 6.8283 120.92 6.8283C121.833 9.09785 121.252 10.7897 121.086 11.2023C122.145 12.3577 122.788 13.8226 122.788 15.6383C122.788 21.9724 118.906 23.3754 115.211 23.788C115.813 24.3038 116.332 25.2942 116.332 26.8416C116.332 29.0492 116.312 30.8236 116.312 31.3807C116.312 31.814 116.623 32.3298 117.453 32.1647C120.75 31.0584 123.614 28.9525 125.644 26.1434C127.673 23.3342 128.765 19.9632 128.766 16.5048C128.766 7.38537 121.335 -0.000976562 112.16 -0.000976562Z" fill="white"/>
</g>
<g clip-path="url(#clip1_234_4)">
<path d="M16.6917 14.9206H9.74408C9.56482 14.9206 9.41929 15.0581 9.41929 15.2273V18.4338C9.41929 18.603 9.56482 18.7407 9.74392 18.7407H12.4544V22.7245C12.4544 22.7245 11.8458 22.9203 10.1633 22.9203C8.1782 22.9203 5.40511 22.2356 5.40511 16.4797C5.40511 10.7227 8.29276 9.96527 11.0036 9.96527C13.35 9.96527 14.361 10.3552 15.0042 10.5431C15.2063 10.6016 15.3933 10.4117 15.3933 10.2423L16.1683 7.14416C16.1683 7.06497 16.1399 6.96962 16.0442 6.9049C15.783 6.72899 14.1894 5.88721 10.1631 5.88721C5.52516 5.88721 0.767334 7.74987 0.767334 16.7042C0.767334 25.6589 6.21443 26.9932 10.8048 26.9932C14.6053 26.9932 16.9108 25.4601 16.9108 25.4601C17.006 25.4106 17.0162 25.2853 17.0162 25.2277V15.2273C17.0162 15.0583 16.871 14.9206 16.6919 14.9206H16.6917ZM52.4787 7.008C52.4787 6.83743 52.3354 6.69974 52.1561 6.69974H48.2441C48.2014 6.6999 48.1591 6.708 48.1197 6.72358C48.0803 6.73916 48.0445 6.76191 48.0145 6.79053C47.9844 6.81916 47.9605 6.8531 47.9444 6.89041C47.9282 6.92772 47.9199 6.96768 47.9201 7.008L47.9211 14.1443H41.8234V7.00816C41.8234 6.83758 41.6795 6.6999 41.5005 6.6999H37.5885C37.5024 6.70034 37.4199 6.73306 37.3593 6.79087C37.2987 6.84867 37.2649 6.92683 37.2653 7.00816V26.3311C37.2653 26.5017 37.4105 26.6403 37.5885 26.6403H41.5004C41.6793 26.6403 41.8231 26.5017 41.8231 26.3311V18.066H47.9209L47.9103 26.331C47.9103 26.5016 48.0555 26.6402 48.2342 26.6402H52.1556C52.3347 26.6402 52.478 26.5016 52.4783 26.331V7.00816L52.4787 7.008ZM24.0611 9.59152C24.0611 8.26191 22.9317 7.18727 21.5384 7.18727C20.1465 7.18727 19.0163 8.26176 19.0163 9.59152C19.0163 10.9196 20.1465 11.9971 21.5384 11.9971C22.9317 11.9971 24.0611 10.9196 24.0611 9.59152V9.59152ZM23.7507 22.265V13.3455C23.7507 13.1761 23.606 13.0377 23.427 13.0377H19.5274C19.3485 13.0377 19.1886 13.2119 19.1886 13.3813V26.1603C19.1886 26.5358 19.4364 26.6475 19.7573 26.6475H23.2707C23.6563 26.6475 23.7507 26.4688 23.7507 26.1542V22.265V22.265ZM67.4301 13.0378H63.5481C63.3699 13.0378 63.2251 13.1763 63.2251 13.3467V22.8215C63.2251 22.8215 62.2389 23.5026 60.839 23.5026C59.4394 23.5026 59.0679 22.9029 59.0679 21.6093V13.3469C59.0679 13.1763 58.9232 13.0377 58.7451 13.0377H54.8051C54.6273 13.0377 54.4816 13.1763 54.4816 13.3469V22.2349C54.4816 26.0776 56.7507 27.0177 59.8719 27.0177C62.4325 27.0177 64.497 25.6825 64.497 25.6825C64.497 25.6825 64.5954 26.3861 64.6398 26.4696C64.6843 26.5529 64.8001 26.6368 64.9253 26.6368L67.4319 26.6265C67.6097 26.6265 67.7554 26.4877 67.7554 26.318L67.7541 13.3467C67.7541 13.1763 67.6089 13.0378 67.4301 13.0378V13.0378ZM76.3744 23.5099C75.028 23.4712 74.1146 22.8944 74.1146 22.8944V16.775C74.1146 16.775 75.0157 16.2537 76.1211 16.1605C77.519 16.0423 78.8661 16.4409 78.8661 19.5888C78.8661 22.9083 78.2582 23.5633 76.3744 23.5097V23.5099ZM77.9056 12.6228C75.7008 12.6228 74.2011 13.5514 74.2011 13.5514V7.008C74.2014 6.96775 74.1932 6.92784 74.1772 6.89055C74.1611 6.85326 74.1374 6.81933 74.1074 6.7907C74.0775 6.76206 74.0418 6.73929 74.0025 6.72369C73.9632 6.70808 73.921 6.69994 73.8784 6.69974H69.9552C69.9125 6.69992 69.8703 6.70804 69.8309 6.72363C69.7916 6.73923 69.7559 6.76199 69.7258 6.79062C69.6958 6.81925 69.6721 6.85318 69.6559 6.89048C69.6398 6.92778 69.6316 6.96772 69.6319 7.008V26.331C69.6319 26.5016 69.7767 26.6402 69.9557 26.6402H72.6776C72.8002 26.6402 72.893 26.5808 72.9616 26.4761C73.0292 26.3723 73.1268 25.5852 73.1268 25.5852C73.1268 25.5852 74.7309 27.0202 77.7677 27.0202C81.3328 27.0202 83.3774 25.3131 83.3774 19.357C83.3774 13.4009 80.112 12.6227 77.9056 12.6227V12.6228ZM35.01 13.0043H32.0756L32.0711 9.34494C32.0711 9.2065 31.9956 9.1372 31.8258 9.1372H27.827C27.6714 9.1372 27.588 9.20178 27.588 9.34281V13.1245C27.588 13.1245 25.5841 13.5811 25.4485 13.618C25.381 13.6365 25.3216 13.6752 25.2793 13.7283C25.2371 13.7814 25.2142 13.8461 25.2143 13.9125V16.2889C25.2143 16.4598 25.3588 16.5976 25.5378 16.5976H27.588V22.3145C27.588 26.5607 30.7433 26.9778 32.8726 26.9778C33.8456 26.9778 35.0094 26.6828 35.2015 26.6159C35.3177 26.5756 35.3851 26.4621 35.3851 26.3388L35.3884 23.7246C35.3884 23.5542 35.2359 23.4162 35.0641 23.4162C34.893 23.4162 34.4558 23.4819 34.0053 23.4819C32.564 23.4819 32.0756 22.8492 32.0756 22.0304L32.0754 16.5978H35.01C35.0528 16.5976 35.0951 16.5895 35.1345 16.5739C35.1739 16.5582 35.2097 16.5354 35.2398 16.5067C35.2698 16.478 35.2936 16.444 35.3097 16.4066C35.3258 16.3693 35.334 16.3292 35.3337 16.2889V13.3124C35.3337 13.1419 35.1889 13.0045 35.01 13.0045V13.0043Z" fill="white"/>
</g>
<defs>
<clipPath id="clip0_234_4">
<rect width="33.2129" height="33.0116" fill="white" transform="translate(95.5544)"/>
</clipPath>
<clipPath id="clip1_234_4">
<rect width="82.6101" height="21.1701" fill="white" transform="translate(0.767334 5.88721)"/>
</clipPath>
</defs>
</svg>
